<svg aria-hidden="true" style="width:0;height:0;position:absolute;overflow:hidden" xmlns="http://www.w3.org/2000/svg"><defs><symbol id="weight" viewBox="0 0 32 32"><path fill="#f8d24e" style="fill:var(--color1,#f8d24e)" d="M16 0c8.837 0 16 7.163 16 16s-7.163 16-16 16S0 24.837 0 16 7.163 0 16 0z"/><path fill="#131313" style="fill:var(--color2,#131313)" d="M14.688 4.874c-2.861.424-5.218 2.013-6.085 4.093-.276.657-.351 1.061-.351 1.853.005.585.026.802.117 1.118.186.621.319.936.595 1.381l.256.414-.288.352c-2.271 2.826-2.521 6.8-.627 9.931.707 1.175 1.862 2.329 2.989 3.002l.335.196 9.175-.077.218-.119c.761-.429 1.835-1.387 2.436-2.163a9.003 9.003 0 0 0 1.737-3.993l.007-.053c.085-.533.085-2.112-.005-2.614-.271-1.547-.851-2.872-1.766-4.047a4.693 4.693 0 0 1-.314-.424c0-.01.096-.171.207-.352.26-.414.495-.947.622-1.412.143-.518.143-1.811 0-2.329-.511-1.837-2.042-3.369-4.207-4.212-.607-.238-1.644-.492-2.314-.574-.622-.072-2.159-.058-2.739.031zm3.238.843c2.84.554 4.92 2.292 5.303 4.435.085.481.032 1.299-.111 1.754a5.58 5.58 0 0 1-.723 1.412c-.128.181-.234.388-.234.456s.111.243.271.419c1.329 1.475 2.031 3.322 2.031 5.32-.005 2.272-.877 4.264-2.558 5.827a8.892 8.892 0 0 1-.915.75l-.399.269-8.792.036-.34-.218c-1.234-.801-2.346-2.126-2.963-3.534a7.945 7.945 0 0 1-.223-5.697c.335-.963.782-1.749 1.462-2.577.277-.332.404-.528.404-.621 0-.078-.138-.332-.319-.595-.638-.927-.899-1.956-.744-2.929.16-.983.606-1.791 1.431-2.593 1.074-1.04 2.574-1.728 4.335-1.987.728-.109 2.34-.067 3.085.072z"/><path fill="#131313" style="fill:var(--color2,#131313)" d="M14.927 6.628c-2.18.357-3.888 1.568-4.446 3.157-.128.357-.149.497-.149 1.009s.021.652.149 1.009c.079.228.228.544.33.704.276.445.399.461.947.129a8.462 8.462 0 0 1 2.683-1.062l.056-.01c.659-.134 1.925-.186 2.643-.103a8.737 8.737 0 0 1 3.313 1.107c.276.16.559.294.627.294.404 0 .92-1.164.92-2.069 0-2.013-1.925-3.736-4.653-4.166-.58-.093-1.862-.093-2.42 0zm2.633.828c.915.196 1.755.57 2.388 1.061.851.657 1.308 1.573 1.233 2.458-.026.352-.159.828-.239.88-.022.01-.32-.114-.66-.279a10.17 10.17 0 0 0-2.254-.779l-.07-.013c-.495-.103-.702-.119-1.808-.114-1.091 0-1.319.016-1.792.114a9.613 9.613 0 0 0-2.245.766c-.792.378-.75.383-.893-.083-.186-.605-.069-1.407.292-2.013.192-.321.718-.854 1.101-1.117.729-.502 1.367-.73 2.739-.979.282-.051 1.846.021 2.207.099zm-.867 6.675c-.149.187-.149.363.005.513.101.099.202.124.57.15a4.673 4.673 0 0 1 2.027.623l-.022-.012c.436.259 1.101.885 1.399 1.335.442.646.744 1.573.744 2.257 0 .238.022.31.133.413.17.171.394.171.559 0 .117-.119.122-.15.09-.657-.149-2.505-2.292-4.595-4.856-4.736l-.532-.031-.116.145z"/></symbol><symbol id="cow" viewBox="0 0 32 32"><path fill="#f8d24e" style="fill:var(--color1,#f8d24e)" d="M16 0c8.837 0 16 7.163 16 16s-7.163 16-16 16S0 24.837 0 16 7.163 0 16 0z"/><path fill="#131313" style="fill:var(--color2,#131313)" d="M8.922 4.618c-.188.163-.725 1.283-.918 1.894-.229.757-.307 1.325-.276 2.109.042 1.12.323 1.97.943 2.857.162.233.292.433.292.449 0 .011-.099.022-.224.022-.538 0-1.544.179-2.315.411-1.225.369-1.944 1.012-1.944 1.732 0 .255.229.687.474.909.474.428 1.512.834 2.627 1.028.386.07 1.533.189 1.788.195.047 0 .063.25.063 1.066 0 .703.026 1.25.078 1.585.188 1.201.771 2.472 1.542 3.371l.266.308-.177.287c-.26.406-.36.714-.39 1.174-.079 1.104.609 2.083 1.939 2.771 2.532 1.315 6.468.801 7.944-1.039.719-.899.803-1.926.234-2.857l-.177-.287.318-.384a6.655 6.655 0 0 0 1.272-2.332c.244-.768.339-1.51.339-2.684 0-.535.015-.979.042-.979a22.66 22.66 0 0 0 1.757-.195c1.121-.195 2.138-.595 2.627-1.028.245-.222.474-.655.474-.909 0-.801-.813-1.45-2.325-1.84-.495-.13-1.428-.287-1.882-.314l-.214-.017.235-.324c.292-.395.657-1.163.797-1.667.396-1.455.151-3.149-.699-4.767-.354-.671-.599-.828-.886-.563-.109.104-.156.244-.26.753-.323 1.618-.923 2.9-1.798 3.846l-.386.422h-8.246l-.344-.373c-.854-.941-1.475-2.272-1.798-3.896-.104-.509-.151-.649-.26-.752-.172-.157-.339-.152-.531.016zm.666 3.209a8.636 8.636 0 0 0 1.027 1.699l.323.417-.339.254c-.318.243-.615.59-.845.986l-.099.178-.25-.34c-.855-1.18-1.069-2.624-.615-4.124.219-.724.214-.719.412-.092.094.303.271.763.386 1.023zm13.568-1.142c.189.524.298 1.129.298 1.76v.067-.003c0 .984-.26 1.818-.808 2.564l-.245.335-.182-.308a3.267 3.267 0 0 0-.903-.994l-.01-.007a1.26 1.26 0 0 1-.25-.195c0-.016.099-.141.224-.276.579-.644 1.199-1.802 1.507-2.797.093-.308.188-.563.203-.563s.094.19.166.417zm-2.663 3.956c.579.243 1.131.941 1.22 1.531.047.325.156.531.297.563.063.01.495.049.959.081 1.647.109 2.945.46 3.498.941.255.227.229.417-.078.65-.615.465-1.944.817-3.3.877-.897.038-1.084.064-1.204.189-.089.092-.099.189-.099 1.169 0 1.326-.068 2.089-.235 2.705-.234.838-.698 1.732-1.24 2.365l-.224.26-.464-.276a5.646 5.646 0 0 0-1.681-.69l-.039-.008c-1.976-.471-4.16-.184-5.629.741l-.339.216-.214-.254a7.865 7.865 0 0 1-.933-1.482c-.401-.931-.521-1.688-.521-3.355 0-1.618.083-1.499-1.116-1.564-1.533-.081-2.701-.357-3.436-.822-.542-.346-.453-.655.303-1.018.724-.352 1.72-.563 3.101-.649 1.074-.07 1.1-.086 1.199-.606.146-.785.724-1.434 1.455-1.64.182-.054 1.204-.065 4.332-.06l4.092.011.297.125zm-2.929 11.2c1.277.314 2.231.898 2.643 1.623.099.168.141.34.161.606.021.33.006.411-.12.682-.579 1.229-2.705 2.04-4.868 1.856-2.601-.216-4.311-1.667-3.638-3.09.365-.768 1.6-1.504 2.903-1.72.214-.032.428-.07.469-.081s.511-.011 1.043 0c.724.017 1.073.049 1.407.125z"/><path fill="#131313" style="fill:var(--color2,#131313)" d="M12.393 13.351c-.323.109-.542.25-.834.541-.256.243-.276.53-.063.703.198.162.386.141.625-.07.303-.265.538-.374.829-.374.292-.005.516.098.829.374.239.211.427.232.625.07.104-.087.136-.157.136-.32 0-.167-.036-.243-.219-.427-.516-.519-1.283-.719-1.929-.498zm6.077-.006c-.333.125-.761.406-.932.617-.167.206-.173.438 0 .612.172.184.38.173.63-.033.615-.509 1.074-.525 1.642-.054.146.125.312.222.365.222.255 0 .464-.227.464-.498 0-.173-.433-.573-.824-.763-.433-.211-.948-.249-1.345-.102zm-5.321 10.016c-.151.146-.204.356-.125.525.058.135.146.189.506.287.162.043.23.097.287.232.073.179.078.179.48.195l.401.017v-.152c-.005-.216-.125-.53-.282-.746-.182-.25-.5-.412-.86-.444-.245-.021-.307-.011-.406.087zm4.978-.038c-.26.07-.636.422-.74.698a1.837 1.837 0 0 0-.099.487v.006c-.01.232.01.287.136.4.307.271.714.06.714-.373 0-.211.156-.357.433-.411.292-.054.396-.173.401-.449 0-.363-.323-.503-.845-.357z"/></symbol><symbol id="icecreame" viewBox="0 0 32 32"><path fill="#f8d24e" style="fill:var(--color1,#f8d24e)" d="M16 0c8.837 0 16 7.163 16 16s-7.163 16-16 16S0 24.837 0 16 7.163 0 16 0z"/><path style="fill:var(--color3,#000)" d="M16.078 4.557c.058.155.173.902.173 1.133v.008c0 .589-.229 1.124-.603 1.522l.001-.001c-.323.347-.646.54-1.422.853-.863.352-1.22.564-1.624.964-.41.41-.651.858-.737 1.384-.097.573 0 .979.294 1.21l.149.115-.236.15c-.477.314-1.344 1.051-1.494 1.277-.289.434-.26.838.067 1.003l.154.077-.173.164c-.26.246-.314.415-.275.858.024.294.015.454-.052.694-.082.314-.082.318.024.54.106.217.405.492.675.607.13.058.134.077.164.52.014.256.038 1.07.058 1.812.015.742.049 1.422.077 1.504a.576.576 0 0 0 .198.26c.279.193.472.401.597.641.14.275.294.95.762 3.283l.328 1.638.202.193c.385.381 1.123.554 2.338.554 1.219 0 1.947-.169 2.333-.55l.207-.197.298-1.519c.66-3.321.718-3.504 1.234-3.914.159-.131.314-.289.342-.362.034-.082.068-.714.092-1.668.019-.848.049-1.687.068-1.866l.029-.323.314-.237c.395-.303.549-.578.549-1.002-.004-.501-.333-1.051-.93-1.542l-.285-.231.14-.198c.583-.804.217-1.918-.868-2.66l-.328-.227.12-.125c.535-.573.622-2.285.173-3.475-.269-.708-.887-1.48-1.644-2.049-.37-.28-1.393-.897-1.484-.897-.019 0-.019.034-.004.077zm1.388 1.683c.256.251.564.593.685.766.718 1.003.901 2.261.467 3.187-.173.376-.694.934-1.176 1.267-.737.511-2.396 1.37-3.552 1.841-1.86.757-2.941.902-3.066.405-.049-.188.092-.337.685-.733.534-.366 2.935-2.15 2.979-2.222.014-.019-.232.092-.54.246-1.046.531-1.542.429-1.518-.308.014-.535.4-1.142.934-1.489.136-.086.555-.28.941-.434 1.267-.511 1.653-.771 2.082-1.412.256-.381.535-1.085.554-1.384.005-.106.024-.188.038-.188s.232.207.486.458zm1.315 5.476c.352.197.718.535.877.8.28.477.136.954-.467 1.562-.655.666-1.773 1.302-3.003 1.706-1.133.371-2.217.545-3.77.598l-.964.034.627.038c.81.053 2.376.005 2.983-.092 1.615-.256 2.989-.767 3.972-1.47.222-.159.453-.289.516-.289.159 0 .853.666.993.945a.727.727 0 0 1 .082.429c-.072.641-.853.984-2.737 1.21-2.304.275-5.316.005-6.604-.588-.608-.28-.708-.439-.554-.863.048-.135.058-.294.038-.521-.024-.299-.019-.337.086-.448.241-.26.646-.41 2.131-.786.52-.134 1.229-.347 1.566-.472.819-.299 2.357-1.075 3.07-1.552.67-.444.767-.463 1.157-.241zm-6.401 5.899c1.012.294 1.909.381 3.577.347 1.253-.024 2.024-.101 3.137-.299.227-.038.424-.072.449-.072.053 0 .038 1.851-.019 2.338-.063.516-.203.916-.352 1.012-.154.101-.925.207-1.957.265-2.116.115-4.29 0-4.964-.27-.366-.149-.405-.342-.41-2.131 0-1.19.01-1.354.072-1.33.038.014.25.077.467.14zm1.143 4.098c.348.044.723.086.838.101l.208.024-.184.202c-.236.255-.598.766-.728 1.027-.149.299-.198.318-.419.198l-.188-.106-.106-.655a16.202 16.202 0 0 0-.156-.876l.02.119c-.044-.125-.087-.125.713-.033zm5.138-.053c0 .01-.024.134-.049.275-.029.144-.149.93-.269 1.749-.246 1.711-.41 2.516-.559 2.786-.207.362-.704.573-1.508.641-.314.024-1.258-.038-1.311-.087-.038-.043.79-1.07.921-1.137.12-.068.154-.058.563.154.477.252.719.29.719.131s-.125-.314-.434-.525c-.284-.203-.385-.319-.385-.454 0-.038.14-.255.308-.482s.414-.588.54-.805l.237-.39.216.029c.438.063.554.058.54-.038a1.142 1.142 0 0 0-.184-.304c-.092-.12-.164-.241-.164-.265 0-.092.448-.935.593-1.114.125-.154.227-.232.227-.164zm-3.012.385c.241.159 1.147.945 1.204 1.041.024.044-.906 1.499-1.089 1.706-.019.024-.12-.024-.221-.101a14.78 14.78 0 0 0-.777-.541l-.061-.037-.651-.429.39-.66c.694-1.162.68-1.142.829-1.142.077 0 .246.072.376.164zm1.826.173c-.169.207-.308.338-.366.338-.125 0-.328-.111-.67-.362l-.285-.207.57-.034c.251-.009.479-.025.706-.047l-.046.004c.386-.062.386-.058.092.309zm-3.644 2.319c.444.173 1.196.583 1.412.767.154.125.154.134.092.289a4.75 4.75 0 0 1-.31.533l.011-.017a8.357 8.357 0 0 0-.3.491l-.023.044c-.154.299-.202.323-.52.237-.342-.102-.525-.275-.621-.589-.131-.438-.338-1.677-.314-1.87.01-.072.212-.029.573.116z"/></symbol><symbol id="github" viewBox="0 0 32 32"><path fill="#f8d24e" style="fill:var(--color1,#f8d24e)" d="M32 16c0 8.837-7.163 16-16 16S0 24.837 0 16 7.163 0 16 0s16 7.163 16 16z"/><path fill="#84a178" style="fill:var(--color4,#84a178)" d="M16 6.588c-5.17 0-9.412 4.242-9.412 9.412 0 4.411 3.096 8.419 7.206 9.412v-3.113a2.314 2.314 0 0 1-1.196-.031c-.556-.164-1.008-.535-1.344-1.099-.214-.36-.593-.753-.988-.724l-.097-1.098c.856-.073 1.594.521 2.033 1.258.196.328.421.52.709.605.278.083.577.043.925-.08.088-.697.408-.958.649-1.327-2.452-.365-3.429-1.666-3.816-2.692-.514-1.364-.238-3.066.67-4.143.018-.021.05-.075.038-.113-.417-1.259.09-2.3.109-2.41.481.141.559-.143 2.089.786l.264.159c.111.066.075.028.186.019a7.787 7.787 0 0 1 1.97-.276h.006a8.021 8.021 0 0 1 2.002.284l.086.009c-.008-.002.024-.006.075-.037 1.911-1.158 1.842-.779 2.355-.946.019.111.519 1.169.106 2.411-.056.171 1.656 1.739.708 4.256-.388 1.026-1.365 2.328-3.816 2.693.314.48.692.734.69 1.722v3.886c4.109-.993 7.206-5 7.206-9.412 0-5.17-4.242-9.412-9.412-9.412z"/></symbol><symbol id="telegram" viewBox="0 0 32 32"><path fill="#f8d24e" style="fill:var(--color1,#f8d24e)" d="M32 16c0 8.837-7.163 16-16 16S0 24.837 0 16 7.163 0 16 0s16 7.163 16 16z"/><path fill="#84a178" style="fill:var(--color4,#84a178)" d="m12.867 18.376-.317 4.169c.455 0 .651-.183.888-.401l2.13-1.901 4.414 3.018c.809.421 1.381.199 1.599-.696l2.898-12.673c.257-1.117-.433-1.554-1.221-1.28L6.225 14.698c-1.163.422-1.145 1.026-.198 1.301l4.354 1.264 10.115-5.907c.476-.295.909-.132.552.163l-8.182 6.856z"/></symbol><symbol id="facebook" viewBox="0 0 32 32"><path fill="#f8d24e" style="fill:var(--color1,#f8d24e)" d="M16 32c8.837 0 16-7.163 16-16S24.837 0 16 0 0 7.163 0 16s7.163 16 16 16z"/><path fill="#84a178" style="fill:var(--color4,#84a178)" d="M20.446 15.981h-2.611V25.6H13.88v-9.619H12v-3.379h1.88v-2.187c0-1.564.739-4.014 3.991-4.014l2.929.012v3.281h-2.125c-.348 0-.839.176-.839.922v1.989h2.955l-.345 3.377z"/></symbol><symbol id="arrow" viewBox="0 0 82 32"><path d="M81.414 17.414c.362-.362.586-.862.586-1.414s-.224-1.052-.586-1.414L68.686 1.858a2 2 0 1 0-2.829 2.827l.001.001L77.172 16 65.858 27.314a2 2 0 0 0 2.829 2.827l-.001.001 12.728-12.728zM0 18h80v-4H0v4z"/></symbol><symbol id="menu" viewBox="0 0 32 32"><path fill="#fff" style="fill:var(--color1,#fff)" d="M26.733 14.667H5.267c-.7 0-1.267.567-1.267 1.266v.134c0 .7.567 1.266 1.267 1.266h21.466c.7 0 1.267-.567 1.267-1.266v-.134c0-.7-.567-1.266-1.267-1.266zm0 6.666H5.267C4.567 21.333 4 21.9 4 22.6v.133c0 .7.567 1.267 1.267 1.267h21.466c.7 0 1.267-.567 1.267-1.267V22.6c0-.7-.567-1.267-1.267-1.267zm0-13.333H5.267C4.567 8 4 8.567 4 9.267V9.4c0 .7.567 1.267 1.267 1.267h21.466c.7 0 1.267-.567 1.267-1.267v-.133C28 8.567 27.433 8 26.733 8z"/></symbol><symbol id="close" viewBox="0 0 32 32"><path fill="#fcfcfc" style="fill:var(--color1,#fcfcfc)" d="M28.614 1.13 16 13.744 3.386 1.13a1.597 1.597 0 0 0-2.255 2.257l-.001-.001L13.738 16 1.127 28.611a1.595 1.595 0 0 0 1.747 2.616l-.01.004c.202-.089.375-.211.518-.361l.001-.001 12.618-12.611 12.614 12.614a1.597 1.597 0 0 0 2.255-2.257l.001.001-12.614-12.614L30.871 3.384a1.596 1.596 0 1 0-2.256-2.259v.003z"/></symbol></defs></svg>